<svg xmlns="http://www.w3.org/2000/svg" width="15.875" height="15.75" viewBox="0 0 15.875 15.75"><defs></defs><g transform="translate(0 0)"><path class="a" d="M2.144,40a2.144,2.144,0,1,0,2.144,2.144A2.147,2.147,0,0,0,2.144,40Z" transform="translate(0 -28.539)"/><path d="M22.144,40a2.144,2.144,0,1,0,2.144,2.144A2.147,2.147,0,0,0,22.144,40Z" transform="translate(-14.207 -28.539)"/><path class="a" d="M42.144,40a2.144,2.144,0,1,0,2.144,2.144A2.147,2.147,0,0,0,42.144,40Z" transform="translate(-28.414 -28.539)"/><path class="a" d="M2.144,20a2.144,2.144,0,1,0,2.144,2.144A2.147,2.147,0,0,0,2.144,20Z" transform="translate(0 -14.269)"/><path class="a" d="M22.144,20a2.144,2.144,0,1,0,2.144,2.144A2.147,2.147,0,0,0,22.144,20Z" transform="translate(-14.207 -14.269)"/><path class="a" d="M42.144,20a2.144,2.144,0,1,0,2.144,2.144A2.147,2.147,0,0,0,42.144,20Z" transform="translate(-28.414 -14.269)"/><path class="a" d="M2.144,0A2.144,2.144,0,1,0,4.289,2.144,2.147,2.147,0,0,0,2.144,0Z" transform="translate(0 0)"/><path class="a" d="M22.144,0a2.144,2.144,0,1,0,2.144,2.144A2.147,2.147,0,0,0,22.144,0Z" transform="translate(-14.207 0)"/><path class="a" d="M42.144,4.289A2.144,2.144,0,1,0,40,2.144,2.147,2.147,0,0,0,42.144,4.289Z" transform="translate(-28.414 0)"/></g></svg>