<svg xmlns="http://www.w3.org/2000/svg" width="15.847" height="15.847" viewBox="0 0 15.847 15.847"><defs></defs><g transform="translate(10.001 10.001)"><path d="M354.908,352.207h-.54v-2.066a.54.54,0,1,0-1.08,0v2.066h-.54a.54.54,0,0,0-.54.54v.54h-2.066a.54.54,0,0,0,0,1.08h2.066v.54a.54.54,0,0,0,.54.54h2.16a.54.54,0,0,0,.54-.54v-2.16A.54.54,0,0,0,354.908,352.207Zm-.54,2.16h-1.08v-1.08h1.08Z" transform="translate(-349.602 -349.601)"/></g><g transform="translate(10.001)"><path class="a" d="M354.908,0h-2.16a.54.54,0,0,0-.54.54v.54h-2.066a.54.54,0,0,0,0,1.08h2.066V2.7a.54.54,0,0,0,.54.54h.54V5.306a.54.54,0,0,0,1.08,0V3.24h.54a.54.54,0,0,0,.54-.54V.54A.54.54,0,0,0,354.908,0Zm-.54,2.16h-1.08V1.08h1.08Z" transform="translate(-349.602)"/></g><g transform="translate(6.08 1.08)"><path class="a" d="M207.947,30h-2.606a.54.54,0,0,0,0,1.08h2.606a.54.54,0,0,0,0-1.08Z" transform="translate(-204.801 -29.998)"/></g><path class="a" d="M5.306,1.08H3.24V.54A.54.54,0,0,0,2.7,0H.54A.54.54,0,0,0,0,.54V2.7a.54.54,0,0,0,.54.54h.54V5.306a.54.54,0,1,0,1.08,0V3.24H2.7a.54.54,0,0,0,.54-.54V2.16H5.306a.54.54,0,0,0,0-1.08ZM2.16,2.16H1.08V1.08H2.16Z" transform="translate(0)"/><g transform="translate(6.08 13.687)"><path class="a" d="M207.947,452h-2.606a.54.54,0,0,0,0,1.08h2.606a.54.54,0,0,0,0-1.08Z" transform="translate(-204.801 -452)"/></g><g transform="translate(0 10.001)"><path class="a" d="M5.306,353.287H3.24v-.54a.54.54,0,0,0-.54-.54H2.16v-2.066a.54.54,0,1,0-1.08,0v2.066H.54a.54.54,0,0,0-.54.54v2.16a.54.54,0,0,0,.54.54H2.7a.54.54,0,0,0,.54-.54v-.54H5.306a.54.54,0,0,0,0-1.08Zm-3.146,1.08H1.08v-1.08H2.16Z" transform="translate(0 -349.601)"/></g><g transform="translate(13.687 6.08)"><path class="a" d="M452.541,204.8a.54.54,0,0,0-.54.54v2.606a.54.54,0,1,0,1.08,0V205.34A.54.54,0,0,0,452.541,204.8Z" transform="translate(-452.001 -204.8)"/></g><g transform="translate(1.08 6.08)"><path class="a" d="M30.54,204.8a.54.54,0,0,0-.54.54v2.606a.54.54,0,0,0,1.08,0V205.34A.54.54,0,0,0,30.54,204.8Z" transform="translate(-30 -204.8)"/></g></svg>