<svg xmlns="http://www.w3.org/2000/svg" width="22.363" height="16.751" viewBox="0 0 22.363 16.751"><defs></defs><path d="M22.28,7.671a.37.37,0,0,0-.332-.131.356.356,0,0,0-.083.015L.275,13.426a.372.372,0,0,0-.019.713l7.9,2.588L7.449,22.38a.372.372,0,0,0,.6.342l2.891-2.214,2.534,3.621a.372.372,0,0,0,.3.159H13.8a.371.371,0,0,0,.306-.2l8.215-16.01A.369.369,0,0,0,22.28,7.671ZM19.694,8.916,8.512,16.06,1.669,13.818ZM8.3,21.59l.515-4.115,1.7,2.423ZM13.727,23.2,9.091,16.574,21.043,8.938Z" transform="translate(0 -7.537)"/></svg>