<svg xmlns="http://www.w3.org/2000/svg" width="15.992" height="16.101" viewBox="0 0 15.992 16.101"><defs></defs><path class="a" d="M16.664,7.8a2.207,2.207,0,0,0-1.542-1.824,4.3,4.3,0,0,0,.088-.844A5.354,5.354,0,0,0,9.667,0,5.846,5.846,0,0,0,7.144.561a5.505,5.505,0,0,0-1.921,1.5.236.236,0,1,0,.367.3A5.031,5.031,0,0,1,7.346.987a5.316,5.316,0,0,1,.83-.312,5.5,5.5,0,0,0-1.379,3A2.316,2.316,0,0,0,2.825,4.969a1.317,1.317,0,0,0,.216,2.616H7.112c.268.844.617,1.658.956,2.446.162.376.316.736.452,1.079H8.264a1.169,1.169,0,0,1-.937-.474c-.581-.788-1.17-1.581-1.669-2.416a.236.236,0,0,0-.405.242c.5.841,1.107,1.658,1.68,2.435l.994,2.173H7.752a.519.519,0,0,0-.518.518v.268a.519.519,0,0,0,.467.516l.308,1.161a.764.764,0,0,0,.738.567h1.84a.764.764,0,0,0,.738-.567l.308-1.161a.519.519,0,0,0,.467-.516v-.268a.519.519,0,0,0-.518-.518H11.4l1-2.173c.15-.2.29-.393.428-.582h3.619A1.268,1.268,0,0,0,16.664,7.8ZM2.2,6.268a.846.846,0,0,1,.843-.845h0A.236.236,0,0,0,3.279,5.2a1.843,1.843,0,0,1,3.484-.762.236.236,0,0,0,.2.129,1.269,1.269,0,0,1,1.12.734.236.236,0,0,0,.244.134.845.845,0,1,1,.106,1.683h-5.4A.846.846,0,0,1,2.2,6.268Zm8.673,9.144a.292.292,0,0,1-.282.217H8.747a.292.292,0,0,1-.282-.217L8.19,14.375h2.955Zm.76-1.824v.268a.047.047,0,0,1-.047.047H7.752a.047.047,0,0,1-.047-.047v-.268a.047.047,0,0,1,.047-.047h3.829A.047.047,0,0,1,11.628,13.588ZM8.444,13.07l-.723-1.582a1.63,1.63,0,0,0,.543.094H11.07a1.63,1.63,0,0,0,.54-.093l-.728,1.581Zm3.563-2.434a1.169,1.169,0,0,1-.937.474h-.256c.137-.343.291-.7.452-1.079a13.09,13.09,0,0,0,1.391-4.9,8.64,8.64,0,0,0-.15-1.622.236.236,0,1,0-.463.089,8.165,8.165,0,0,1,.142,1.533,12.752,12.752,0,0,1-1.353,4.716c-.19.443-.371.864-.526,1.265H9.027c-.155-.4-.336-.822-.526-1.265-.315-.733-.639-1.487-.894-2.26h.837a1.319,1.319,0,0,0,.929-2.248,1.3,1.3,0,0,0-.937-.386A1.735,1.735,0,0,0,7.21,4.113C7.466,2.023,8.5.472,9.667.472c.831,0,1.612.773,2.087,2.069a.236.236,0,1,0,.443-.163A4.585,4.585,0,0,0,11.166.68a4.731,4.731,0,0,1,3.572,4.449C14.738,7,13.14,9.1,12.007,10.636Zm4.441-.793H13.169a12.155,12.155,0,0,0,1.839-3.412,1.74,1.74,0,0,1,1.2,1.592.236.236,0,0,0,.236.227h0a.8.8,0,0,1,0,1.593Z" transform="translate(-1.724)"/></svg>