<svg xmlns="http://www.w3.org/2000/svg" width="15.657" height="15.03" viewBox="0 0 15.657 15.03"><defs></defs><g transform="translate(0)"><path class="a" d="M15.627,18.5a6.172,6.172,0,0,0-4.8-5.412v-.777a1.04,1.04,0,0,0-.251-2.049h-2.2a1.04,1.04,0,0,0-.251,2.049v.779a6.14,6.14,0,0,0-3.012,1.657,6.207,6.207,0,0,0-.519.589H2.39a.306.306,0,1,0,0,.612H4.177a6.13,6.13,0,0,0-.543,1.175H.306a.306.306,0,1,0,0,.612H3.461a6.218,6.218,0,0,0-.152,1.175H1.957a.306.306,0,1,0,0,.612H3.319A6.209,6.209,0,0,0,3.51,20.7H1.529a.306.306,0,0,0,0,.612H3.705a6.177,6.177,0,0,0,5.164,3.954q.3.03.606.03a6.192,6.192,0,0,0,3.371-1,.306.306,0,1,0-.334-.513,5.566,5.566,0,1,1,1.639-1.641.306.306,0,1,0,.513.333A6.2,6.2,0,0,0,15.627,18.5ZM7.946,11.3a.429.429,0,0,1,.428-.428h2.2a.428.428,0,1,1,0,.856h-2.2A.429.429,0,0,1,7.946,11.3Zm.789,1.683v-.643h1.481v.642A6.231,6.231,0,0,0,8.735,12.985Z" transform="translate(0 -10.262)"/><path class="a" d="M436.081,425.5a.311.311,0,1,0,.22.091A.313.313,0,0,0,436.081,425.5Z" transform="translate(-422.486 -412.844)"/><path class="a" d="M159.7,144.609a4.831,4.831,0,1,0,4.831,4.831A4.836,4.836,0,0,0,159.7,144.609Zm0,9.038a4.208,4.208,0,1,1,4.208-4.208A4.212,4.212,0,0,1,159.7,153.647Z" transform="translate(-150.335 -140.7)"/><path class="a" d="M260.655,219.5l-1.542,1.542a.965.965,0,0,0-.855,0l-.69-.69a.311.311,0,1,0-.44.44l.69.69a.968.968,0,1,0,1.736,0l1.5-1.5h0l.045-.045a.311.311,0,0,0-.44-.44Zm-1.97,2.755a.345.345,0,1,1,.345-.345A.345.345,0,0,1,258.685,222.257Z" transform="translate(-249.226 -213.05)"/><path class="a" d="M398.255,289.86h-.289a.311.311,0,1,0,0,.623h.289a.311.311,0,0,0,0-.623Z" transform="translate(-385.508 -281.316)"/><path class="a" d="M193.682,289.616h-.288a.311.311,0,1,0,0,.623h.288a.311.311,0,1,0,0-.623Z" transform="translate(-187.184 -281.08)"/><path class="a" d="M300.434,183.73a.311.311,0,0,0,.311-.311v-.288a.311.311,0,0,0-.623,0v.288A.311.311,0,0,0,300.434,183.73Z" transform="translate(-290.952 -177.548)"/><path class="a" d="M300.19,387.393a.311.311,0,0,0-.311.311v.289a.311.311,0,0,0,.623,0V387.7A.311.311,0,0,0,300.19,387.393Z" transform="translate(-290.715 -375.873)"/><path class="a" d="M.311,351.44a.311.311,0,1,0,.22.531.311.311,0,0,0-.22-.531Z" transform="translate(0 -341.015)"/></g></svg>